<svg height="750" width="720" xmlns="http://www.w3.org/2000/svg">
<rect height="750" fill="#555" width="720"></rect>
<text fill="#7f7" font-family="Courier New" font-size="12" xml:space="preserve">
<tspan x="10" y="26">7 megabytes installed</tspan>
<tspan x="10" y="42"></tspan>
<tspan x="10" y="58">node_modules</tspan>
<tspan x="10" y="74">├── UNMET PEER DEPENDENCY browserify@&gt;= 2.3</tspan>
<tspan x="10" y="90">└─┬ browserify-shim@3.8.14 </tspan>
<tspan x="10" y="106">  ├─┬ exposify@0.5.0 </tspan>
<tspan x="10" y="122">  │ ├─┬ globo@1.1.0 </tspan>
<tspan x="10" y="138">  │ │ ├─┬ accessory@1.1.0 </tspan>
<tspan x="10" y="154">  │ │ │ ├── ap@0.2.0 </tspan>
<tspan x="10" y="170">  │ │ │ ├── balanced-match@0.2.1 </tspan>
<tspan x="10" y="186">  │ │ │ └── dot-parts@1.0.1 </tspan>
<tspan x="10" y="202">  │ │ ├── is-defined@1.0.0 </tspan>
<tspan x="10" y="218">  │ │ └── ternary@1.0.0 </tspan>
<tspan x="10" y="234">  │ ├── map-obj@1.0.1 </tspan>
<tspan x="10" y="250">  │ ├─┬ replace-requires@1.0.4 </tspan>
<tspan x="10" y="266">  │ │ ├─┬ detective@4.5.0 </tspan>
<tspan x="10" y="282">  │ │ │ ├── acorn@4.0.11 </tspan>
<tspan x="10" y="298">  │ │ │ └── defined@1.0.0 </tspan>
<tspan x="10" y="314">  │ │ ├─┬ has-require@1.2.2 </tspan>
<tspan x="10" y="330">  │ │ │ └── escape-string-regexp@1.0.5 </tspan>
<tspan x="10" y="346">  │ │ ├── patch-text@1.0.2 </tspan>
<tspan x="10" y="362">  │ │ └── xtend@4.0.1 </tspan>
<tspan x="10" y="378">  │ ├─┬ through2@0.4.2 </tspan>
<tspan x="10" y="394">  │ │ ├─┬ readable-stream@1.0.34 </tspan>
<tspan x="10" y="410">  │ │ │ ├── core-util-is@1.0.2 </tspan>
<tspan x="10" y="426">  │ │ │ ├── inherits@2.0.3 </tspan>
<tspan x="10" y="442">  │ │ │ ├── isarray@0.0.1 </tspan>
<tspan x="10" y="458">  │ │ │ └── string_decoder@0.10.31 </tspan>
<tspan x="10" y="474">  │ │ └─┬ xtend@2.1.2 </tspan>
<tspan x="10" y="490">  │ │   └── object-keys@0.4.0 </tspan>
<tspan x="10" y="506">  │ └─┬ transformify@0.1.2 </tspan>
<tspan x="10" y="522">  │   └── readable-stream@1.1.14 </tspan>
<tspan x="10" y="538">  ├─┬ mothership@0.2.0 </tspan>
<tspan x="10" y="554">  │ └── find-parent-dir@0.3.0 </tspan>
<tspan x="10" y="570">  ├─┬ rename-function-calls@0.1.1 </tspan>
<tspan x="10" y="586">  │ └─┬ detective@3.1.0 </tspan>
<tspan x="10" y="602">  │   ├─┬ escodegen@1.1.0 </tspan>
<tspan x="10" y="618">  │   │ ├── esprima@1.0.4 </tspan>
<tspan x="10" y="634">  │   │ ├── estraverse@1.5.1 </tspan>
<tspan x="10" y="650">  │   │ ├── esutils@1.0.0 </tspan>
<tspan x="10" y="666">  │   │ └─┬ source-map@0.1.43 </tspan>
<tspan x="10" y="682">  │   │   └── amdefine@1.0.1 </tspan>
<tspan x="10" y="698">  │   └── esprima-fb@3001.1.0-dev-harmony-fb </tspan>
<tspan x="10" y="714">  ├── resolve@0.6.3 </tspan>
<tspan x="10" y="730">  └── through@2.3.8</tspan>
</text>
</svg>
